{
	"asset":{
		"generator":"Khronos glTF Blender I/O v4.0.44",
		"version":"2.0"
	},
	"scene":0,
	"scenes":[
		{
			"name":"Scene",
			"nodes":[
				0,
				1,
				2,
				3,
				4
			]
		}
	],
	"nodes":[
		{
			"mesh":0,
			"name":"body",
			"rotation":[
				0,
				-1,
				0,
				1.6292068494294654e-07
			],
			"scale":[
				1.0276838541030884,
				1.0276838541030884,
				1.0276838541030884
			],
			"translation":[
				-0.23857325315475464,
				0,
				-1.1862661838531494
			]
		},
		{
			"mesh":1,
			"name":"leg",
			"rotation":[
				0,
				-1,
				0,
				1.6292068494294654e-07
			],
			"scale":[
				0.2632337808609009,
				0.2632337808609009,
				0.2632337808609009
			],
			"translation":[
				-0.24315020442008972,
				-1.7029526233673096,
				-1.1660869121551514
			]
		},
		{
			"mesh":2,
			"name":"left_arm",
			"scale":[
				0.8850221037864685,
				0.8850221037864685,
				0.8850221037864685
			],
			"translation":[
				0.13317985832691193,
				-0.11506900936365128,
				0.05626877769827843
			]
		},
		{
			"mesh":3,
			"name":"right_arm",
			"scale":[
				0.8850221037864685,
				0.8850221037864685,
				0.8850221037864685
			],
			"translation":[
				0.13317985832691193,
				-0.11506900936365128,
				0.05626877769827843
			]
		},
		{
			"mesh":4,
			"name":"cap",
			"rotation":[
				0,
				-1,
				0,
				1.6292069915380125e-07
			],
			"scale":[
				0.8268366456031799,
				0.8268366456031799,
				0.8268366456031799
			],
			"translation":[
				-0.2635596990585327,
				0.9303730130195618,
				-1.0529794692993164
			]
		}
	],
	"materials":[
		{
			"doubleSided":true,
			"name":"Material.001",
			"pbrMetallicRoughness":{
				"baseColorFactor":[
					0.2582266628742218,
					0.059508632868528366,
					0.00651164073497057,
					1
				],
				"metallicFactor":0,
				"roughnessFactor":0.5
			}
		},
		{
			"doubleSided":true,
			"name":"face",
			"pbrMetallicRoughness":{
				"baseColorFactor":[
					0.5648071765899658,
					0.23838719725608826,
					0.05447640269994736,
					1
				],
				"metallicFactor":0,
				"roughnessFactor":0.5
			}
		},
		{
			"doubleSided":true,
			"name":"cap",
			"pbrMetallicRoughness":{}
		},
		{
			"doubleSided":true,
			"name":"headcap",
			"pbrMetallicRoughness":{
				"baseColorFactor":[
					0.35159212350845337,
					0.08437252044677734,
					0.02623934857547283,
					1
				],
				"metallicFactor":0,
				"roughnessFactor":0.5
			}
		}
	],
	"meshes":[
		{
			"name":"Sphere.005",
			"primitives":[
				{
					"attributes":{
						"POSITION":0,
						"NORMAL":1,
						"TEXCOORD_0":2
					},
					"indices":3,
					"material":0
				}
			]
		},
		{
			"name":"Circle.002",
			"primitives":[
				{
					"attributes":{
						"POSITION":4,
						"NORMAL":5,
						"TEXCOORD_0":6
					},
					"indices":7,
					"material":1
				}
			]
		},
		{
			"name":"Circle.005",
			"primitives":[
				{
					"attributes":{
						"POSITION":8,
						"NORMAL":9,
						"TEXCOORD_0":10
					},
					"indices":11,
					"material":1
				}
			]
		},
		{
			"name":"Circle.006",
			"primitives":[
				{
					"attributes":{
						"POSITION":12,
						"NORMAL":13,
						"TEXCOORD_0":14
					},
					"indices":15,
					"material":1
				}
			]
		},
		{
			"name":"Cube",
			"primitives":[
				{
					"attributes":{
						"POSITION":16,
						"NORMAL":17,
						"TEXCOORD_0":18
					},
					"indices":19,
					"material":2
				},
				{
					"attributes":{
						"POSITION":20,
						"NORMAL":21,
						"TEXCOORD_0":22
					},
					"indices":23,
					"material":3
				}
			]
		}
	],
	"accessors":[
		{
			"bufferView":0,
			"componentType":5126,
			"count":1666,
			"max":[
				0.4814063310623169,
				-0.9914093613624573,
				0.47483891248703003
			],
			"min":[
				-0.4814063310623169,
				-1.736777901649475,
				-0.4972843825817108
			],
			"type":"VEC3"
		},
		{
			"bufferView":1,
			"componentType":5126,
			"count":1666,
			"type":"VEC3"
		},
		{
			"bufferView":2,
			"componentType":5126,
			"count":1666,
			"type":"VEC2"
		},
		{
			"bufferView":3,
			"componentType":5123,
			"count":2580,
			"type":"SCALAR"
		},
		{
			"bufferView":4,
			"componentType":5126,
			"count":2268,
			"max":[
				1.57869291305542,
				-0.011885488405823708,
				0.468615859746933
			],
			"min":[
				-1.57869291305542,
				-1.5937023162841797,
				-0.47481927275657654
			],
			"type":"VEC3"
		},
		{
			"bufferView":5,
			"componentType":5126,
			"count":2268,
			"type":"VEC3"
		},
		{
			"bufferView":6,
			"componentType":5126,
			"count":2268,
			"type":"VEC2"
		},
		{
			"bufferView":7,
			"componentType":5123,
			"count":3816,
			"type":"SCALAR"
		},
		{
			"bufferView":8,
			"componentType":5126,
			"count":448,
			"max":[
				0.8453051447868347,
				-0.840997040271759,
				-1.0677584409713745
			],
			"min":[
				-1.3879897231561245e-08,
				-1.2329542636871338,
				-1.4597158432006836
			],
			"type":"VEC3"
		},
		{
			"bufferView":9,
			"componentType":5126,
			"count":448,
			"type":"VEC3"
		},
		{
			"bufferView":10,
			"componentType":5126,
			"count":448,
			"type":"VEC2"
		},
		{
			"bufferView":11,
			"componentType":5123,
			"count":756,
			"type":"SCALAR"
		},
		{
			"bufferView":12,
			"componentType":5126,
			"count":448,
			"max":[
				-0.8400988578796387,
				-0.840997040271759,
				-1.0677579641342163
			],
			"min":[
				-1.6854043006896973,
				-1.2329542636871338,
				-1.4597153663635254
			],
			"type":"VEC3"
		},
		{
			"bufferView":13,
			"componentType":5126,
			"count":448,
			"type":"VEC3"
		},
		{
			"bufferView":14,
			"componentType":5126,
			"count":448,
			"type":"VEC2"
		},
		{
			"bufferView":15,
			"componentType":5123,
			"count":756,
			"type":"SCALAR"
		},
		{
			"bufferView":16,
			"componentType":5126,
			"count":384,
			"max":[
				1.6380970478057861,
				1.287928819656372,
				1.6476572751998901
			],
			"min":[
				-1.638096809387207,
				-1.507030725479126,
				-1.3571523427963257
			],
			"type":"VEC3"
		},
		{
			"bufferView":17,
			"componentType":5126,
			"count":384,
			"type":"VEC3"
		},
		{
			"bufferView":18,
			"componentType":5126,
			"count":384,
			"type":"VEC2"
		},
		{
			"bufferView":19,
			"componentType":5123,
			"count":576,
			"type":"SCALAR"
		},
		{
			"bufferView":20,
			"componentType":5126,
			"count":488,
			"max":[
				0.5787884593009949,
				1.3486989736557007,
				-0.436747282743454
			],
			"min":[
				0.06197988986968994,
				0.8161687850952148,
				-0.9626487493515015
			],
			"type":"VEC3"
		},
		{
			"bufferView":21,
			"componentType":5126,
			"count":488,
			"type":"VEC3"
		},
		{
			"bufferView":22,
			"componentType":5126,
			"count":488,
			"type":"VEC2"
		},
		{
			"bufferView":23,
			"componentType":5123,
			"count":948,
			"type":"SCALAR"
		}
	],
	"bufferViews":[
		{
			"buffer":0,
			"byteLength":19992,
			"byteOffset":0,
			"target":34962
		},
		{
			"buffer":0,
			"byteLength":19992,
			"byteOffset":19992,
			"target":34962
		},
		{
			"buffer":0,
			"byteLength":13328,
			"byteOffset":39984,
			"target":34962
		},
		{
			"buffer":0,
			"byteLength":5160,
			"byteOffset":53312,
			"target":34963
		},
		{
			"buffer":0,
			"byteLength":27216,
			"byteOffset":58472,
			"target":34962
		},
		{
			"buffer":0,
			"byteLength":27216,
			"byteOffset":85688,
			"target":34962
		},
		{
			"buffer":0,
			"byteLength":18144,
			"byteOffset":112904,
			"target":34962
		},
		{
			"buffer":0,
			"byteLength":7632,
			"byteOffset":131048,
			"target":34963
		},
		{
			"buffer":0,
			"byteLength":5376,
			"byteOffset":138680,
			"target":34962
		},
		{
			"buffer":0,
			"byteLength":5376,
			"byteOffset":144056,
			"target":34962
		},
		{
			"buffer":0,
			"byteLength":3584,
			"byteOffset":149432,
			"target":34962
		},
		{
			"buffer":0,
			"byteLength":1512,
			"byteOffset":153016,
			"target":34963
		},
		{
			"buffer":0,
			"byteLength":5376,
			"byteOffset":154528,
			"target":34962
		},
		{
			"buffer":0,
			"byteLength":5376,
			"byteOffset":159904,
			"target":34962
		},
		{
			"buffer":0,
			"byteLength":3584,
			"byteOffset":165280,
			"target":34962
		},
		{
			"buffer":0,
			"byteLength":1512,
			"byteOffset":168864,
			"target":34963
		},
		{
			"buffer":0,
			"byteLength":4608,
			"byteOffset":170376,
			"target":34962
		},
		{
			"buffer":0,
			"byteLength":4608,
			"byteOffset":174984,
			"target":34962
		},
		{
			"buffer":0,
			"byteLength":3072,
			"byteOffset":179592,
			"target":34962
		},
		{
			"buffer":0,
			"byteLength":1152,
			"byteOffset":182664,
			"target":34963
		},
		{
			"buffer":0,
			"byteLength":5856,
			"byteOffset":183816,
			"target":34962
		},
		{
			"buffer":0,
			"byteLength":5856,
			"byteOffset":189672,
			"target":34962
		},
		{
			"buffer":0,
			"byteLength":3904,
			"byteOffset":195528,
			"target":34962
		},
		{
			"buffer":0,
			"byteLength":1896,
			"byteOffset":199432,
			"target":34963
		}
	],
	"buffers":[
		{
			"byteLength":201328,
			"uri":"0140_tory.bin"
		}
	]
}
